<?xml version="1.0" encoding="UTF-8" standalone="no"?>
<!-- Created with Inkscape (http://www.inkscape.org/) -->

<svg
   xmlns:dc="http://purl.org/dc/elements/1.1/"
   xmlns:cc="http://creativecommons.org/ns#"
   xmlns:rdf="http://www.w3.org/1999/02/22-rdf-syntax-ns#"
   xmlns:svg="http://www.w3.org/2000/svg"
   xmlns="http://www.w3.org/2000/svg"
   xmlns:sodipodi="http://sodipodi.sourceforge.net/DTD/sodipodi-0.dtd"
   xmlns:inkscape="http://www.inkscape.org/namespaces/inkscape"
   width="82mm"
   height="60mm"
   viewBox="0 0 290.55118 212.59842"
   id="svg2"
   version="1.1"
   inkscape:version="0.92.3 (2405546, 2018-03-11)"
   sodipodi:docname="placeholder.svg">
  <defs
     id="defs4" />
  <sodipodi:namedview
     id="base"
     pagecolor="#ffffff"
     bordercolor="#666666"
     borderopacity="1.0"
     inkscape:pageopacity="0.0"
     inkscape:pageshadow="2"
     inkscape:zoom="1.979899"
     inkscape:cx="23.170638"
     inkscape:cy="113.92304"
     inkscape:document-units="px"
     inkscape:current-layer="layer1"
     showgrid="false"
     inkscape:window-width="1920"
     inkscape:window-height="1062"
     inkscape:window-x="0"
     inkscape:window-y="18"
     inkscape:window-maximized="1"
     showguides="false" />
  <metadata
     id="metadata7">
    <rdf:RDF>
      <cc:Work
         rdf:about="">
        <dc:format>image/svg+xml</dc:format>
        <dc:type
           rdf:resource="http://purl.org/dc/dcmitype/StillImage" />
        <dc:title />
      </cc:Work>
    </rdf:RDF>
  </metadata>
  <g
     inkscape:label="Layer 1"
     inkscape:groupmode="layer"
     id="layer1"
     transform="translate(0,-839.76378)">
    <rect
       style="opacity:0.97000002;fill:#ffffff;fill-opacity:1;stroke:#808080;stroke-width:1.77165353;stroke-linecap:round;stroke-linejoin:round;stroke-miterlimit:4;stroke-dasharray:none;stroke-dashoffset:0;stroke-opacity:1"
       id="rect3336"
       width="290.55118"
       height="212.59842"
       x="1.5619233e-06"
       y="839.76379" />
    <text
       xml:space="preserve"
       style="font-style:normal;font-variant:normal;font-weight:normal;font-stretch:normal;line-height:0%;font-family:'Frutiger Next LT W1G';-inkscape-font-specification:'Frutiger Next LT W1G';letter-spacing:0px;word-spacing:0px;fill:#e6e6e6;fill-opacity:1;stroke:none;stroke-width:1px;stroke-linecap:butt;stroke-linejoin:miter;stroke-opacity:1;"
       x="5.1501951"
       y="1047.6016"
       id="text3338"
       transform="rotate(0.07390241)"><tspan
         sodipodi:role="line"
         id="tspan3340"
         x="5.1501951"
         y="1047.6016"
         style="font-size:14.99999972px;line-height:1.25;-inkscape-font-specification:'Linux Libertine O';font-family:'Linux Libertine O';font-weight:normal;font-style:normal;font-stretch:normal;font-variant:normal;fill:#e6e6e6;">Placeholder</tspan></text>
    <path
       style="fill:#e6e6e6;stroke:none;stroke-width:0.04420169"
       inkscape:connector-curvature="0"
       d="m 121.72027,1006.4712 c -2.56369,-0.884 -4.90638,-1.8123 -5.2158,-1.9891 -0.35361,-0.2652 -0.53042,-1.8122 -0.53042,-4.99468 0,-2.5196 -0.1768,-4.597 -0.35361,-4.597 -0.22101,0 -1.23765,1.0166 -2.25429,2.2101 -1.01664,1.2376 -2.07748,2.2101 -2.38689,2.2101 -0.26521,0 -1.85647,-0.5305 -3.53613,-1.1493 -2.69631,-1.0166 -3.13832,-1.3703 -3.93395,-3.0057 l -0.88404,-1.8565 1.32605,-4.8622 c 0.75143,-2.6521 1.45866,-6.586 1.63547,-8.7519 0.30941,-4.1992 0.1326,-4.6854 -1.85648,-4.6854 -0.83983,0 -1.41445,0.8398 -3.44773,4.8622 -1.326047,2.6963 -2.652097,4.8622 -2.873107,4.8622 -0.22101,0 -1.72386,-0.6188 -3.31512,-1.4145 l -2.87311,-1.4144 -3.04992,1.4586 -3.04992,1.5029 -3.27092,-2.0775 c -1.81227,-1.105 -3.40353,-2.0332 -3.58034,-2.0332 -0.1326,0 -0.83983,1.9448 -1.59126,4.3317 -0.70723,2.3427 -2.740505,7.5143 -4.508573,11.4925 -2.652101,5.96718 -3.40353,7.33738 -4.46437,7.86788 -0.751429,0.3977 -1.591261,0.5746 -1.900673,0.442 -1.547059,-0.5747 -11.271432,-7.07228 -11.271432,-7.51428 0,-0.2652 0.618824,-2.0775 1.370253,-4.0224 3.580337,-9.3265 5.2158,-14.8075 5.702018,-19.3161 0.26521,-2.5195 0.574622,-4.9948 0.707227,-5.5252 0.132605,-0.7514 -0.132605,-1.1493 -1.193445,-1.6797 -0.751429,-0.3978 -1.414455,-0.663 -1.502858,-0.5746 -0.04418,0.088 -0.751429,1.4145 -1.547059,3.0057 -2.254287,4.5086 -7.160674,12.3765 -7.735296,12.3765 -0.26521,0 -1.502858,-0.3095 -2.696303,-0.6631 -1.193446,-0.3536 -2.431093,-0.663 -2.696304,-0.663 -0.309411,0 -1.370252,1.2819 -2.386891,2.8731 -0.972437,1.5913 -2.033278,2.8732 -2.342689,2.8732 -0.397816,0 -7.956305,-5.8347 -9.724372,-7.5143 -0.618824,-0.6189 0.884033,-8.1774 4.022353,-20.0676 l 2.87311,-11.0504 8.398322,-16.79667 c 5.878825,-11.75765 9.238153,-17.94589 11.094624,-20.50959 1.502858,-1.98907 2.917312,-3.62453 3.182522,-3.62453 0.26521,0 1.723866,1.81227 3.270925,4.06655 2.475295,3.58034 2.740505,4.15496 2.298488,5.0832 -0.26521,0.61882 -0.397815,1.23764 -0.309412,1.41445 0.442017,0.70723 3.845547,1.94487 4.199161,1.54706 0.221008,-0.22101 1.237647,-2.6963 2.298488,-5.48101 1.635462,-4.33177 2.87311,-6.49765 8.398316,-14.80757 l 6.49765,-9.72437 7.7795,-6.63025 c 4.33177,-3.62454 9.459157,-7.55849 11.448237,-8.75194 3.31513,-1.94487 3.80134,-2.07748 5.79042,-1.90067 1.23765,0.1326 2.43109,0.48622 2.74051,0.79563 0.61882,0.66303 1.94487,5.1274 1.94487,6.49765 0,0.53042 -1.63546,4.06655 -3.58034,7.8679 l -3.58033,6.93967 2.25428,1.94487 c 1.23765,1.06084 2.25429,2.21008 2.25429,2.5195 0,0.30941 -1.19345,3.09411 -2.6521,6.18823 -1.45866,3.09412 -2.6521,5.65782 -2.6521,5.74622 0,0.0442 0.79563,0.44202 1.81226,0.88404 1.72387,0.79563 1.85648,0.79563 3.27093,0.0442 1.23765,-0.70722 1.67966,-1.37025 2.6963,-4.19916 2.38689,-6.63025 2.69631,-7.33748 3.75715,-7.8679 1.76806,-0.92823 2.7847,-0.66302 6.09983,1.67967 2.74051,1.90067 3.27093,2.16588 3.71294,1.59126 3.27093,-4.19916 7.16068,-8.70773 7.51429,-8.70773 0.22101,0 1.67966,1.10504 3.22672,2.47529 1.67967,1.41445 3.13832,2.38689 3.58034,2.29849 0.48622,-0.0884 1.72387,-1.81227 3.00572,-4.11076 1.23764,-2.21008 3.44773,-5.70202 4.99479,-7.7795 2.29848,-3.09412 3.27092,-4.02235 5.2158,-4.95059 1.32605,-0.66302 2.6963,-1.19344 3.04991,-1.19344 1.14925,0 6.85126,3.09412 6.85126,3.66874 0,0.35361 -0.79563,2.5637 -1.81226,4.99479 -2.03328,5.03899 -4.46438,12.19967 -4.19916,12.46488 0.1326,0.0884 1.41445,-2.16589 2.8289,-5.039 2.6079,-5.2158 2.69631,-5.3042 6.40925,-8.0447 2.03328,-1.50286 3.93395,-2.74051 4.15496,-2.74051 0.22101,0 1.41445,1.06084 2.6521,2.34269 1.98907,1.98908 2.34269,2.6079 2.5637,4.50857 0.26521,2.07748 0,2.78471 -4.15496,12.50908 -2.4753,5.65782 -4.46437,10.56421 -4.46437,10.82942 0.0442,0.30941 0.48622,1.06084 1.01664,1.72386 0.88403,1.10504 1.10504,1.14925 2.96151,0.79563 3.35933,-0.66302 5.65782,-0.53042 6.09983,0.35362 0.22101,0.39781 0.79563,2.8289 1.19345,5.3042 0.83983,4.81798 1.23765,5.43681 3.00571,4.64118 0.75143,-0.35362 1.76807,-2.4753 4.24337,-9.01715 1.81227,-4.72958 3.58033,-9.10555 3.88974,-9.81277 1.01664,-2.03328 19.66976,-27.00724 24.00152,-32.17884 2.25429,-2.6521 4.37597,-4.81798 4.72958,-4.81798 0.30942,0 2.34269,0.88403 4.46437,1.94487 3.04992,1.54706 4.06656,2.29849 4.72959,3.49194 l 0.83983,1.59126 -3.93395,8.22151 -3.93395,8.22152 1.67966,3.40353 1.67967,3.40353 -0.48622,4.42017 -0.53042,4.37597 -4.02236,6.89546 c -2.21008,3.75714 -4.33176,7.29328 -4.64118,7.8237 -0.57462,0.88403 -0.53042,1.01664 0.79564,1.67966 l 1.41445,0.75143 2.6521,-2.6079 c 2.16588,-2.12168 3.09412,-3.53613 5.39261,-8.30992 2.25428,-4.68538 3.22672,-6.18823 5.26,-8.17731 l 2.51949,-2.43109 3.62454,1.28185 c 1.98908,0.70722 3.93395,1.54706 4.33177,1.85647 0.39781,0.35361 1.06084,1.81227 1.50286,3.22672 l 0.79563,2.6521 -1.19345,1.98908 c -1.28185,2.21008 -1.28185,2.25429 0.79563,4.77378 1.28185,1.59126 1.50286,1.67967 3.97815,1.67967 2.25429,0 3.09412,0.26521 6.23244,1.98907 3.49194,1.90067 3.71294,2.07748 4.68538,4.50857 l 1.01664,2.47525 -1.23765,2.2543 c -3.58033,6.4977 -12.81849,24.0899 -18.4763,35.1845 -5.1274,10.1222 -6.71866,13.6142 -7.8679,17.6807 -0.79564,2.7847 -1.72387,5.3484 -2.03328,5.7021 -0.48622,0.5304 -1.45866,0.3977 -6.45345,-0.8399 -3.22672,-0.7956 -6.23244,-1.6354 -6.63025,-1.8565 -0.66303,-0.3094 -0.79563,-1.0166 -0.79563,-4.2433 v -3.8456 l -7.7353,-3.8897 -7.7353,-3.8456 -3.09411,6.1883 c -1.72387,3.4035 -3.35933,6.1882 -3.66874,6.1882 -0.30942,0 -2.34269,-0.3978 -4.55278,-0.884 -2.16588,-0.4862 -4.28756,-0.8841 -4.68538,-0.8841 -0.48622,0 -2.25428,1.9891 -4.59697,5.0832 -2.12168,2.7847 -4.02236,5.0832 -4.28757,5.0832 -0.26521,0 -2.29849,-1.105 -4.55277,-2.4753 -3.31513,-1.989 -4.19916,-2.7405 -4.86219,-4.1991 -0.75143,-1.7239 -0.75143,-1.8565 0,-3.8456 0.97244,-2.4311 1.98908,-6.8955 2.03328,-8.5309 0,-1.1935 -0.0884,-1.2376 -7.33748,-3.8013 -0.26521,-0.088 -1.01664,1.326 -1.67966,3.1383 -0.66303,1.8123 -1.50286,3.5361 -1.81227,3.8013 -0.39782,0.3536 -1.50286,0.3536 -3.62454,0.088 -1.63547,-0.2652 -3.13832,-0.3094 -3.27093,-0.1326 -0.1768,0.1326 -1.32605,3.1383 -2.6079,6.6745 -1.28185,3.5361 -2.5637,6.6744 -2.87311,7.0281 -0.53042,0.5304 -1.01664,0.3977 -3.31512,-0.9725 -1.50286,-0.9282 -2.91732,-1.6355 -3.13832,-1.6355 -0.22101,0 -1.10505,1.4145 -1.94488,3.0941 -0.88403,1.7239 -1.81227,3.2268 -2.12168,3.3594 -0.30941,0.088 -1.94487,-0.3978 -3.58034,-1.1493 -1.67966,-0.7514 -3.27092,-1.2818 -3.53613,-1.1934 -0.30941,0.1326 -0.79563,2.2543 -1.14925,5.21578 -0.61882,5.5694 -1.01664,7.0281 -1.85647,6.9838 -0.30941,0 -2.6521,-0.7514 -5.2158,-1.6354 z"
       id="path824" />
  </g>
</svg>
